# This file uses centimeters as units for non-parametric coordinates.

mtllib vaselow.mtl
g default
v -0.142901 -0.152898 0.152898
v 0.142901 -0.152898 0.152898
v -0.196346 0.015441 0.210082
v 0.196346 0.015441 0.210082
v -0.196346 0.015441 -0.210082
v 0.196346 0.015441 -0.210082
v -0.142901 -0.152898 -0.152898
v 0.142901 -0.152898 -0.152898
v 0.269779 0.015441 0.000000
v -0.269779 0.015441 0.000000
v -0.196346 -0.152898 0.000000
v 0.196346 -0.152898 0.000000
v 0.000000 0.015441 -0.266592
v 0.000000 -0.152898 -0.194026
v 0.000000 -0.152898 0.000000
v 0.000000 -0.152898 0.194026
v 0.000000 0.015441 0.266592
v -0.250293 0.171427 0.267803
v 0.000000 0.171427 0.339840
v -0.343903 0.171427 0.000000
v 0.000000 0.171427 -0.339840
v -0.250293 0.171427 -0.267803
v 0.250293 0.171427 0.267803
v 0.343903 0.171427 0.000000
v 0.250293 0.171427 -0.267803
v -0.291481 0.355713 0.311874
v 0.000000 0.355713 0.395765
v -0.400496 0.355713 0.000000
v 0.000000 0.355713 -0.395765
v -0.291481 0.355713 -0.311874
v 0.291481 0.355713 0.311874
v 0.400496 0.355713 0.000000
v 0.291481 0.355713 -0.311874
v -0.298121 0.537105 0.318978
v 0.000000 0.537105 0.404780
v -0.409619 0.537105 0.000000
v 0.000000 0.537105 -0.404780
v -0.298121 0.537105 -0.318978
v 0.298121 0.537105 0.318978
v 0.409619 0.537105 0.000000
v 0.298121 0.537105 -0.318978
v -0.270272 0.719650 0.289180
v 0.000000 0.719650 0.366967
v -0.371354 0.719650 0.000000
v 0.000000 0.719650 -0.366967
v -0.270272 0.719650 -0.289180
v 0.270272 0.719650 0.289180
v 0.371354 0.719650 0.000000
v 0.270272 0.719650 -0.289180
v -0.189781 0.812932 0.203058
v 0.000000 0.812932 0.257679
v -0.260760 0.812932 0.000000
v 0.000000 0.812932 -0.257679
v -0.189781 0.812932 -0.203058
v 0.189781 0.812932 0.203058
v 0.260760 0.812932 0.000000
v 0.189781 0.812932 -0.203058
v -0.199997 0.845028 0.213989
v 0.000000 0.845028 0.271550
v -0.274796 0.845028 0.000000
v 0.000000 0.845028 -0.271550
v -0.199997 0.845028 -0.213989
v 0.199997 0.845028 0.213989
v 0.274796 0.845028 0.000000
v 0.199997 0.845028 -0.213989
v -0.211330 0.893464 0.226115
v 0.000000 0.893464 0.286938
v -0.290368 0.893464 0.000000
v 0.000000 0.893464 -0.286938
v -0.211330 0.893464 -0.226115
v 0.211330 0.893464 0.226115
v 0.290368 0.893464 0.000000
v 0.211330 0.893464 -0.226115
v -0.200995 0.942650 0.215057
v 0.000000 0.942650 0.272905
v -0.276167 0.942650 0.000000
v 0.000000 0.942650 -0.272905
v -0.200995 0.942650 -0.215057
v 0.200995 0.942650 0.215057
v 0.276167 0.942650 0.000000
v 0.200995 0.942650 -0.215057
v -0.163398 0.958718 0.174830
v 0.000000 0.958718 0.221858
v -0.224510 0.958718 0.000000
v 0.000000 0.958718 -0.221858
v -0.163398 0.958718 -0.174830
v 0.163398 0.958718 0.174830
v 0.224510 0.958718 0.000000
v 0.163398 0.958718 -0.174830
v -0.129087 0.916890 0.138118
v 0.000000 0.916890 0.175271
v -0.177366 0.916890 0.000000
v 0.000000 0.916890 -0.175271
v -0.129087 0.916890 -0.138118
v 0.129087 0.916890 0.138118
v 0.177366 0.916890 0.000000
v 0.129087 0.916890 -0.138118
v -0.129087 0.883155 0.138118
v 0.000000 0.883155 0.175271
v -0.177366 0.883155 0.000000
v 0.000000 0.883155 -0.175271
v -0.129087 0.883155 -0.138118
v 0.129087 0.883155 0.138118
v 0.177366 0.883155 0.000000
v 0.129087 0.883155 -0.138118
v -0.149093 0.819777 0.159524
v 0.000000 0.819777 0.202434
v -0.204854 0.819777 0.000000
v 0.000000 0.819777 -0.202434
v -0.149093 0.819777 -0.159524
v 0.149093 0.819777 0.159524
v 0.204854 0.819777 0.000000
v 0.149093 0.819777 -0.159524
v -0.261840 0.511783 0.280159
v 0.000000 0.511783 0.355519
v -0.359769 0.511783 0.000000
v 0.000000 0.511783 -0.355519
v -0.261840 0.511783 -0.280159
v 0.261840 0.511783 0.280159
v 0.359769 0.511783 0.000000
v 0.261840 0.511783 -0.280159
v -0.124223 -0.105074 0.132914
v 0.000000 -0.105074 0.168667
v 0.000000 -0.105447 0.000000
v -0.170683 -0.105074 0.000000
v 0.000000 -0.105074 -0.168667
v -0.124223 -0.105074 -0.132914
v 0.124223 -0.105074 0.132914
v 0.170683 -0.105074 0.000000
v 0.124223 -0.105074 -0.132914
vt 0.397991 0.481828
vt 0.299681 0.481828
vt 0.299681 0.410046
vt 0.397991 0.410046
vt 0.903259 0.538611
vt 0.881680 0.540727
vt 0.882257 0.512359
vt 0.904354 0.964661
vt 0.615364 0.410046
vt 0.713690 0.410046
vt 0.231935 0.594529
vt 0.103604 0.631450
vt 0.055595 0.768750
vt 0.594589 0.722638
vt 0.203399 0.481828
vt 0.418268 0.722899
vt 0.962113 0.410046
vt 0.203399 0.410046
vt 0.506672 0.410046
vt 0.859260 0.943853
vt 0.884420 0.947997
vt 0.360258 0.631477
vt 0.809976 0.410046
vt 0.860206 0.537734
vt 0.812475 0.960513
vt 0.833830 0.945711
vt 0.299681 0.338569
vt 0.397991 0.338569
vt 0.506672 0.338569
vt 0.615364 0.338569
vt 0.713690 0.338569
vt 0.203399 0.338569
vt 0.966643 0.338569
vt 0.809976 0.338569
vt 0.299681 0.252750
vt 0.397991 0.252750
vt 0.506672 0.252750
vt 0.615364 0.252750
vt 0.713690 0.252750
vt 0.203399 0.252750
vt 0.966643 0.252750
vt 0.809976 0.252750
vt 0.299681 0.167168
vt 0.397991 0.167168
vt 0.506672 0.167168
vt 0.615364 0.167168
vt 0.713690 0.167168
vt 0.203399 0.167168
vt 0.966643 0.167168
vt 0.809976 0.167168
vt 0.299681 0.086192
vt 0.397991 0.086192
vt 0.506672 0.086192
vt 0.615364 0.086192
vt 0.713689 0.086192
vt 0.203399 0.086192
vt 0.966643 0.086192
vt 0.809976 0.086192
vt 0.192352 0.892999
vt 0.280213 0.892999
vt 0.377389 0.892999
vt 0.474564 0.892999
vt 0.562418 0.892999
vt 0.107117 0.892999
vt 0.747028 0.892999
vt 0.647644 0.892999
vt 0.192352 0.877677
vt 0.280213 0.877676
vt 0.377389 0.877677
vt 0.474564 0.877677
vt 0.562418 0.877676
vt 0.107117 0.877676
vt 0.747028 0.877677
vt 0.647644 0.877677
vt 0.192352 0.855169
vt 0.280213 0.855169
vt 0.377389 0.855169
vt 0.474564 0.855169
vt 0.562418 0.855169
vt 0.107117 0.855169
vt 0.747028 0.855169
vt 0.647644 0.855169
vt 0.192352 0.833381
vt 0.280213 0.833381
vt 0.377389 0.833381
vt 0.474564 0.833381
vt 0.562418 0.833381
vt 0.107117 0.833381
vt 0.726679 0.833381
vt 0.647644 0.833381
vt 0.471108 0.915600
vt 0.400769 0.915600
vt 0.322918 0.915600
vt 0.244956 0.915600
vt 0.174691 0.915600
vt 0.541053 0.915600
vt 0.012523 0.915600
vt 0.104717 0.915600
vt 0.471108 0.942237
vt 0.400769 0.942237
vt 0.322918 0.942237
vt 0.244956 0.942237
vt 0.174691 0.942237
vt 0.541053 0.942237
vt 0.036398 0.942237
vt 0.104716 0.942237
vt 0.471108 0.958137
vt 0.400769 0.958137
vt 0.322918 0.958137
vt 0.244956 0.958137
vt 0.174691 0.958137
vt 0.541053 0.958137
vt 0.036398 0.958137
vt 0.104716 0.958137
vt 0.878387 0.701458
vt 0.912227 0.703601
vt 0.943632 0.706925
vt 0.907639 0.755073
vt 0.867764 0.754984
vt 0.844487 0.702216
vt 0.791217 0.746674
vt 0.828042 0.751487
vt 0.879498 0.647080
vt 0.922103 0.645357
vt 0.971903 0.641909
vt 0.914749 0.824181
vt 0.864887 0.818882
vt 0.836999 0.643617
vt 0.756102 0.822297
vt 0.814748 0.819675
vt 0.174691 0.990889
vt 0.104716 0.990889
vt 0.036398 0.990889
vt 0.541053 0.990889
vt 0.471108 0.990889
vt 0.322918 0.990889
vt 0.244956 0.990889
vt 0.400769 0.990889
vt 0.562418 0.813936
vt 0.647644 0.813936
vt 0.707770 0.813936
vt 0.107117 0.813936
vt 0.192352 0.813936
vt 0.377389 0.813936
vt 0.474564 0.813936
vt 0.280213 0.813936
vt 0.713689 0.027237
vt 0.809976 0.027237
vt 0.966643 0.027237
vt 0.203399 0.027237
vt 0.299681 0.027237
vt 0.506672 0.027237
vt 0.615364 0.027237
vt 0.397991 0.027237
vt 0.594331 0.548399
vt 0.466058 0.585523
vt 0.713689 0.481828
vt 0.809976 0.481828
vt 0.058091 0.481828
vt 0.506672 0.481828
vt 0.722713 0.585142
vt 0.615364 0.481828
vt 0.842911 0.523984
vt 0.857750 0.977187
vt 0.787383 0.638127
vt 0.921102 0.525581
vt 0.972924 0.832058
vt 0.609614 0.990889
vt 0.812972 0.704250
vt 0.944747 0.753587
vt 0.609614 0.958137
vt 0.609614 0.942237
vt 0.046966 0.813936
vt 0.633154 0.915600
vt 0.028062 0.833381
vt 0.007725 0.855169
vt 0.007725 0.877676
vt 0.046713 0.027237
vt 0.007725 0.892999
vt 0.046713 0.086192
vt 0.046713 0.167168
vt 0.046713 0.252750
vt 0.046713 0.338569
vt 0.051302 0.410046
vt 0.231917 0.768768
vt 0.955348 0.481828
vt 0.408239 0.768787
vt 0.770911 0.722376
vn -0.467096 -0.743958 0.477857
vn 0.000000 -0.773719 0.633529
vn 0.000000 -0.413028 0.910718
vn -0.630590 -0.440200 0.639203
vn 0.638883 0.408554 -0.651853
vn 0.000000 0.409163 -0.912461
vn 0.000000 1.000000 -0.000000
vn 0.918641 0.395094 0.000000
vn -0.630590 -0.440200 -0.639203
vn -0.000000 -0.413028 -0.910718
vn 0.000000 -0.773719 -0.633529
vn -0.467096 -0.743958 -0.477857
vn -0.671716 -0.740809 0.000000
vn 0.000000 -1.000000 0.000000
vn 0.467096 -0.743958 0.477857
vn 0.671716 -0.740809 0.000000
vn 0.908660 -0.417536 0.000000
vn 0.630590 -0.440200 0.639203
vn -0.908660 -0.417536 0.000000
vn 0.000000 0.409163 0.912461
vn 0.638883 0.408554 0.651853
vn 0.467096 -0.743958 -0.477857
vn 0.630590 -0.440200 -0.639203
vn -0.638883 0.408554 -0.651853
vn -0.918641 0.395094 0.000000
vn -0.638883 0.408554 0.651853
vn 0.000000 -0.344507 0.938784
vn -0.654695 -0.364066 0.662443
vn -0.938103 -0.346357 0.000000
vn -0.654695 -0.364066 -0.662443
vn 0.000000 -0.344507 -0.938784
vn 0.654695 -0.364066 0.662443
vn 0.938103 -0.346357 0.000000
vn 0.654695 -0.364066 -0.662443
vn 0.000000 -0.166241 0.986085
vn -0.693312 -0.175183 0.699020
vn -0.986036 -0.166532 0.000000
vn -0.693312 -0.175183 -0.699020
vn 0.000000 -0.166241 -0.986085
vn 0.693312 -0.175183 0.699020
vn 0.986036 -0.166532 0.000000
vn 0.693312 -0.175183 -0.699020
vn 0.000000 0.074904 0.997191
vn -0.702127 0.078975 0.707659
vn -0.997183 0.075013 -0.000000
vn -0.702127 0.078975 -0.707659
vn 0.000000 0.074904 -0.997191
vn 0.702127 0.078975 0.707659
vn 0.997183 0.075013 0.000000
vn 0.702127 0.078975 -0.707659
vn 0.000000 0.415596 0.909549
vn -0.639071 0.418895 0.645070
vn -0.912378 0.409349 0.000000
vn -0.639071 0.418895 -0.645070
vn 0.000000 0.415596 -0.909549
vn 0.639071 0.418895 0.645070
vn 0.912378 0.409349 0.000000
vn 0.639071 0.418895 -0.645070
vn 0.000000 0.636351 0.771399
vn -0.517758 0.669080 0.533159
vn -0.765901 0.642958 0.000000
vn -0.517758 0.669080 -0.533159
vn -0.000000 0.636351 -0.771399
vn 0.517758 0.669080 0.533159
vn 0.765901 0.642958 -0.000000
vn 0.517758 0.669080 -0.533159
vn -0.000000 -0.337655 0.941270
vn -0.655914 -0.358217 0.664423
vn -0.940404 -0.340060 -0.000000
vn -0.655913 -0.358217 -0.664423
vn 0.000000 -0.337655 -0.941270
vn 0.655913 -0.358217 0.664423
vn 0.940404 -0.340060 0.000000
vn 0.655914 -0.358217 -0.664423
vn 0.000000 -0.012770 0.999918
vn -0.706326 -0.012958 0.707768
vn -0.999921 -0.012570 -0.000000
vn -0.706326 -0.012958 -0.707769
vn -0.000000 -0.012770 -0.999918
vn 0.706326 -0.012958 0.707769
vn 0.999921 -0.012570 0.000000
vn 0.706326 -0.012958 -0.707768
vn 0.000000 0.638722 0.769438
vn -0.548234 0.625857 0.554745
vn -0.780888 0.624672 -0.000000
vn -0.548234 0.625857 -0.554745
vn -0.000000 0.638722 -0.769438
vn 0.548234 0.625857 0.554745
vn 0.780888 0.624672 0.000000
vn 0.548234 0.625857 -0.554745
vn -0.000000 0.993188 -0.116520
vn 0.039694 0.998718 -0.031422
vn 0.086305 0.996269 0.000000
vn 0.039694 0.998718 0.031422
vn 0.000000 0.993188 0.116520
vn -0.039694 0.998718 -0.031422
vn -0.086305 0.996269 -0.000000
vn -0.039694 0.998718 0.031422
vn -0.000000 0.563354 -0.826215
vn 0.555984 0.605554 -0.569373
vn 0.818621 0.574334 0.000000
vn 0.555984 0.605554 0.569373
vn 0.000000 0.563354 0.826215
vn -0.555984 0.605554 -0.569373
vn -0.818621 0.574334 -0.000000
vn -0.555984 0.605554 0.569373
vn 0.000000 -0.281007 -0.959706
vn 0.666662 -0.305813 -0.679735
vn 0.958139 -0.286303 0.000000
vn 0.666662 -0.305813 0.679735
vn -0.000000 -0.281007 0.959706
vn -0.666662 -0.305813 -0.679735
vn -0.958139 -0.286303 -0.000000
vn -0.666662 -0.305813 0.679735
vn 0.000000 -0.439751 -0.898120
vn 0.618333 -0.467506 -0.631746
vn 0.895896 -0.444264 0.000000
vn 0.618333 -0.467506 0.631746
vn 0.000000 -0.439751 0.898120
vn -0.618333 -0.467506 -0.631746
vn -0.895896 -0.444264 -0.000000
vn -0.618333 -0.467506 0.631746
vn 0.000000 0.030247 -0.999542
vn 0.706626 0.037919 -0.706570
vn 0.999459 0.032894 0.000000
vn 0.706626 0.037919 0.706570
vn 0.000000 0.030247 0.999542
vn -0.706626 0.037919 -0.706570
vn -0.999459 0.032894 0.000000
vn -0.706626 0.037919 0.706570
s 1
g pCube1
usemtl initialShadingGroup
f 1/1/1 16/2/2 17/3/3 3/4/4
f 122/5/5 123/6/6 124/7/7 125/166/8
f 5/9/9 13/10/10 14/157/11 7/162/12
f 11/188/13 15/14/14 16/155/2 1/161/1
f 2/15/15 12/159/16 9/184/17 4/18/18
f 11/160/13 1/1/1 3/4/4 10/19/19
f 125/8/8 124/164/7 126/20/20 127/21/21
f 7/162/12 11/160/13 10/19/19 5/9/9
f 7/12/12 14/11/11 15/185/14 11/13/13
f 9/17/17 12/186/16 8/158/22 6/23/23
f 13/10/10 6/23/23 8/158/22 14/157/11
f 15/185/14 14/11/11 8/22/22 12/187/16
f 16/155/2 15/14/14 12/16/16 2/156/15
f 17/3/3 16/2/2 2/15/15 4/18/18
f 124/7/7 123/6/6 128/24/24 129/163/25
f 126/20/20 124/164/7 129/25/25 130/26/26
f 3/4/4 17/3/3 19/27/27 18/28/28
f 10/19/19 3/4/4 18/28/28 20/29/29
f 13/10/10 5/9/9 22/30/30 21/31/31
f 5/9/9 10/19/19 20/29/29 22/30/30
f 17/3/3 4/18/18 23/32/32 19/27/27
f 4/18/18 9/184/17 24/183/33 23/32/32
f 9/17/17 6/23/23 25/34/34 24/33/33
f 6/23/23 13/10/10 21/31/31 25/34/34
f 18/28/28 19/27/27 27/35/35 26/36/36
f 20/29/29 18/28/28 26/36/36 28/37/37
f 21/31/31 22/30/30 30/38/38 29/39/39
f 22/30/30 20/29/29 28/37/37 30/38/38
f 19/27/27 23/32/32 31/40/40 27/35/35
f 23/32/32 24/183/33 32/182/41 31/40/40
f 24/33/33 25/34/34 33/42/42 32/41/41
f 25/34/34 21/31/31 29/39/39 33/42/42
f 26/36/36 27/35/35 35/43/43 34/44/44
f 28/37/37 26/36/36 34/44/44 36/45/45
f 29/39/39 30/38/38 38/46/46 37/47/47
f 30/38/38 28/37/37 36/45/45 38/46/46
f 27/35/35 31/40/40 39/48/48 35/43/43
f 31/40/40 32/182/41 40/181/49 39/48/48
f 32/41/41 33/42/42 41/50/50 40/49/49
f 33/42/42 29/39/39 37/47/47 41/50/50
f 34/44/44 35/43/43 43/51/51 42/52/52
f 36/45/45 34/44/44 42/52/52 44/53/53
f 37/47/47 38/46/46 46/54/54 45/55/55
f 38/46/46 36/45/45 44/53/53 46/54/54
f 35/43/43 39/48/48 47/56/56 43/51/51
f 39/48/48 40/181/49 48/180/57 47/56/56
f 40/49/49 41/50/50 49/58/58 48/57/57
f 41/50/50 37/47/47 45/55/55 49/58/58
f 42/52/52 43/51/51 51/151/59 50/154/60
f 44/53/53 42/52/52 50/154/60 52/152/61
f 45/55/55 46/54/54 54/153/62 53/147/63
f 46/54/54 44/53/53 52/152/61 54/153/62
f 43/51/51 47/56/56 55/150/64 51/151/59
f 47/56/56 48/180/57 56/178/65 55/150/64
f 48/57/57 49/58/58 57/148/66 56/149/65
f 49/58/58 45/55/55 53/147/63 57/148/66
f 50/60/60 51/59/59 59/67/67 58/68/68
f 52/61/61 50/60/60 58/68/68 60/69/69
f 53/63/63 54/62/62 62/70/70 61/71/71
f 54/62/62 52/61/61 60/69/69 62/70/70
f 51/59/59 55/64/64 63/72/72 59/67/67
f 55/64/64 56/179/65 64/177/73 63/72/72
f 56/65/65 57/66/66 65/74/74 64/73/73
f 57/66/66 53/63/63 61/71/71 65/74/74
f 58/68/68 59/67/67 67/75/75 66/76/76
f 60/69/69 58/68/68 66/76/76 68/77/77
f 61/71/71 62/70/70 70/78/78 69/79/79
f 62/70/70 60/69/69 68/77/77 70/78/78
f 59/67/67 63/72/72 71/80/80 67/75/75
f 63/72/72 64/177/73 72/176/81 71/80/80
f 64/73/73 65/74/74 73/82/82 72/81/81
f 65/74/74 61/71/71 69/79/79 73/82/82
f 66/76/76 67/75/75 75/83/83 74/84/84
f 68/77/77 66/76/76 74/84/84 76/85/85
f 69/79/79 70/78/78 78/86/86 77/87/87
f 70/78/78 68/77/77 76/85/85 78/86/86
f 67/75/75 71/80/80 79/88/88 75/83/83
f 71/80/80 72/176/81 80/175/89 79/88/88
f 72/81/81 73/82/82 81/90/90 80/89/89
f 73/82/82 69/79/79 77/87/87 81/90/90
f 74/84/84 75/83/83 83/143/91 82/146/92
f 76/85/85 74/84/84 82/146/92 84/144/93
f 77/87/87 78/86/86 86/145/94 85/139/95
f 78/86/86 76/85/85 84/144/93 86/145/94
f 75/83/83 79/88/88 87/142/96 83/143/91
f 79/88/88 80/175/89 88/173/97 87/142/96
f 80/89/89 81/90/90 89/140/98 88/141/97
f 81/90/90 77/87/87 85/139/95 89/140/98
f 82/92/92 83/91/91 91/99/99 90/100/100
f 84/93/93 82/92/92 90/100/100 92/101/101
f 85/95/95 86/94/94 94/102/102 93/103/103
f 86/94/94 84/93/93 92/101/101 94/102/102
f 83/91/91 87/96/96 95/104/104 91/99/99
f 87/96/96 88/174/97 96/172/105 95/104/104
f 88/97/97 89/98/98 97/106/106 96/105/105
f 89/98/98 85/95/95 93/103/103 97/106/106
f 90/100/100 91/99/99 99/107/107 98/108/108
f 92/101/101 90/100/100 98/108/108 100/109/109
f 93/103/103 94/102/102 102/110/110 101/111/111
f 94/102/102 92/101/101 100/109/109 102/110/110
f 91/99/99 95/104/104 103/112/112 99/107/107
f 95/104/104 96/172/105 104/171/113 103/112/112
f 96/105/105 97/106/106 105/114/114 104/113/113
f 97/106/106 93/103/103 101/111/111 105/114/114
f 98/108/108 99/107/107 107/135/115 106/138/116
f 100/109/109 98/108/108 106/138/116 108/136/117
f 101/111/111 102/110/110 110/137/118 109/131/119
f 102/110/110 100/109/109 108/136/117 110/137/118
f 99/107/107 103/112/112 111/134/120 107/135/115
f 103/112/112 104/171/113 112/168/121 111/134/120
f 104/113/113 105/114/114 113/132/122 112/133/121
f 105/114/114 101/111/111 109/131/119 113/132/122
f 106/116/116 107/115/115 115/123/123 114/124/124
f 108/117/117 106/116/116 114/124/124 116/125/125
f 109/119/119 110/118/118 118/126/126 117/127/127
f 110/118/118 108/170/117 116/167/125 118/126/126
f 107/115/115 111/120/120 119/128/128 115/123/123
f 111/120/120 112/169/121 120/165/129 119/128/128
f 112/121/121 113/122/122 121/130/130 120/129/129
f 113/122/122 109/119/119 117/127/127 121/130/130
f 114/124/124 115/123/123 123/6/6 122/5/5
f 116/125/125 114/124/124 122/5/5 125/166/8
f 117/127/127 118/126/126 127/21/21 126/20/20
f 118/126/126 116/167/125 125/8/8 127/21/21
f 115/123/123 119/128/128 128/24/24 123/6/6
f 119/128/128 120/165/129 129/163/25 128/24/24
f 120/129/129 121/130/130 130/26/26 129/25/25
f 121/130/130 117/127/127 126/20/20 130/26/26
